<svg width="766" height="760" viewBox="0 0 766 760" fill="none" xmlns="http://www.w3.org/2000/svg">
<g clip-path="url(#clip0_301_3)">
<rect width="766" height="760" fill="url(#paint0_linear_301_3)"/>
<path d="M639.158 920.676H120.215C80.4696 920.676 49.723 885.93 54.7224 846.435L77.7199 662.705C84.2192 610.211 128.714 570.965 181.708 570.965H578.165C630.909 570.965 675.404 610.211 682.153 662.705L705.15 846.435C709.65 885.93 678.903 920.676 639.158 920.676Z" fill="#F1534D"/>
<path d="M639.158 920.676H120.215C80.4696 920.676 49.723 885.93 54.7224 846.435L77.7199 662.705C84.2192 610.211 128.714 570.965 181.708 570.965H578.165C630.909 570.965 675.404 610.211 682.153 662.705L705.15 846.435C709.65 885.93 678.903 920.676 639.158 920.676Z" stroke="black" stroke-width="4" stroke-miterlimit="10" stroke-linecap="round" stroke-linejoin="round"/>
<path d="M176.458 726.198L171.459 788.941" stroke="black" stroke-width="4" stroke-miterlimit="10" stroke-linecap="round" stroke-linejoin="round"/>
<path d="M586.663 726.198L591.663 788.941" stroke="black" stroke-width="4" stroke-miterlimit="10" stroke-linecap="round" stroke-linejoin="round"/>
<path d="M639.157 920.677H120.214C80.4686 920.677 49.722 885.93 54.7214 846.435L77.7189 662.705C84.2182 610.211 128.713 570.965 181.707 570.965H578.164C630.908 570.965 675.403 610.211 682.152 662.705L705.149 846.435C709.649 885.93 678.902 920.677 639.157 920.677Z" fill="#F1534D"/>
<g opacity="0.24">
<path opacity="0.24" d="M77.4705 682.203C83.9698 629.708 128.465 590.463 181.459 590.463H577.915C630.659 590.463 675.154 629.708 681.904 682.203L704.651 864.432C705.401 858.683 705.651 852.684 704.901 846.434L681.904 662.705C675.404 610.21 630.909 570.965 577.915 570.965H181.459C128.715 570.965 84.2198 610.21 77.4705 662.705L54.473 846.434C53.7231 852.434 53.7231 858.433 54.723 864.432L77.4705 682.203Z" fill="#9B2121"/>
<path opacity="0.24" d="M204.456 590.462C204.456 590.462 235.203 595.962 237.702 612.96C239.702 626.708 239.452 635.707 244.702 641.207C249.951 646.706 262.2 657.955 286.947 657.955C273.198 644.206 272.948 595.962 269.199 595.962C265.699 595.962 256.7 571.965 256.7 571.965L244.702 566.465C244.952 566.465 200.706 571.964 204.456 590.462Z" fill="#9B2121"/>
<path opacity="0.24" d="M532.921 590.462C532.921 590.462 502.174 595.962 499.674 612.96C497.674 626.708 497.924 635.707 492.675 641.207C487.426 646.456 475.177 657.955 450.43 657.955C464.178 644.206 464.428 595.962 468.178 595.962C471.677 595.962 480.676 571.965 480.676 571.965L492.675 566.465C492.425 566.465 536.67 571.964 532.921 590.462Z" fill="#9B2121"/>
</g>
<path d="M639.157 920.677H120.214C80.4686 920.677 49.722 885.93 54.7214 846.435L77.7189 662.705C84.2182 610.211 128.713 570.965 181.707 570.965H578.164C630.908 570.965 675.403 610.211 682.152 662.705L705.149 846.435C709.649 885.93 678.902 920.677 639.157 920.677Z" stroke="black" stroke-width="4" stroke-miterlimit="10" stroke-linecap="round" stroke-linejoin="round"/>
<path d="M176.458 726.198L171.459 788.941" stroke="black" stroke-width="4" stroke-miterlimit="10" stroke-linecap="round" stroke-linejoin="round"/>
<path d="M586.663 726.198L591.663 788.941" stroke="black" stroke-width="4" stroke-miterlimit="10" stroke-linecap="round" stroke-linejoin="round"/>
<path d="M312.94 466.477L230.699 462.227L192.203 466.477C192.203 466.477 166.456 485.724 166.456 490.974C166.456 496.223 168.956 538.968 168.956 538.968C168.956 538.968 229.699 547.218 236.198 553.467C242.698 559.716 281.193 595.712 281.193 595.712L318.439 581.214L337.937 529.22L312.94 466.477Z" fill="#9B2121"/>
<path d="M298.441 434.73H203.451C165.205 434.73 133.959 465.727 133.959 504.222C133.959 542.468 164.956 573.715 203.451 573.715H215.95C236.198 573.715 252.446 589.963 252.446 610.211V613.96C252.446 638.208 272.194 657.955 296.441 657.955V612.96C296.941 612.96 297.441 613.46 297.441 613.96V610.211C297.441 565.216 260.945 528.72 215.95 528.72H203.451C189.953 528.72 178.954 517.721 178.954 504.222C178.954 490.724 189.953 479.725 203.451 479.725H298.441V434.73Z" fill="#F1534D"/>
<path d="M292.689 581.964C281.19 550.968 251.193 528.47 216.197 528.47H203.698C190.2 528.47 179.201 517.471 179.201 503.973C179.201 490.474 190.2 479.475 203.698 479.475H298.688V434.48H203.698C165.453 434.48 134.206 465.477 134.206 503.973C134.206 542.218 165.203 573.465 203.698 573.465H216.197C236.445 573.465 252.693 589.713 252.693 609.961V613.711C252.693 637.958 272.441 657.706 296.688 657.706" stroke="black" stroke-width="4" stroke-miterlimit="10" stroke-linecap="round" stroke-linejoin="round"/>
<path d="M421.681 466.477L503.922 462.228L542.417 466.477C542.417 466.477 568.165 485.725 568.165 490.975C568.165 496.224 565.665 538.969 565.665 538.969C565.665 538.969 504.922 547.218 498.422 553.468C491.923 559.967 453.427 595.713 453.427 595.713L416.181 581.215L396.684 529.22L421.681 466.477Z" fill="#9B2121"/>
<path d="M436.179 434.73H531.168C569.414 434.73 600.661 465.727 600.661 504.223C600.661 542.468 569.664 573.715 531.168 573.715H518.67C498.422 573.715 482.174 589.963 482.174 610.211V613.961C482.174 638.208 462.426 657.956 438.179 657.956V612.961C437.679 612.961 437.179 613.461 437.179 613.961V610.211C437.179 565.216 473.675 528.72 518.67 528.72H531.168C544.667 528.72 555.666 517.721 555.666 504.223C555.666 490.724 544.667 479.725 531.168 479.725H436.179V434.73Z" fill="#F1534D"/>
<path d="M442.178 581.964C453.677 550.968 483.673 528.47 518.67 528.47H531.168C544.667 528.47 555.666 517.471 555.666 503.973C555.666 490.474 544.667 479.476 531.168 479.476H436.179V434.481H531.168C569.414 434.481 600.661 465.477 600.661 503.973C600.661 542.219 569.664 573.465 531.168 573.465H518.67C498.422 573.465 482.174 589.714 482.174 609.961V613.711C482.174 637.958 462.426 657.706 438.179 657.706" stroke="black" stroke-width="4" stroke-miterlimit="10" stroke-linecap="round" stroke-linejoin="round"/>
<path d="M371.936 622.46C425.778 622.46 469.426 578.812 469.426 524.97C469.426 471.129 425.778 427.481 371.936 427.481C318.095 427.481 274.447 471.129 274.447 524.97C274.447 578.812 318.095 622.46 371.936 622.46Z" fill="#F46262"/>
<path d="M278.697 496.223C305.694 513.471 337.691 523.72 371.937 523.72C406.183 523.72 438.18 513.721 465.177 496.223C452.928 456.228 415.932 427.231 371.937 427.231C328.192 427.481 290.946 456.477 278.697 496.223Z" fill="#F1534D"/>
<path d="M371.936 622.46C425.778 622.46 469.426 578.812 469.426 524.97C469.426 471.129 425.778 427.481 371.936 427.481C318.095 427.481 274.447 471.129 274.447 524.97C274.447 578.812 318.095 622.46 371.936 622.46Z" stroke="black" stroke-width="4" stroke-miterlimit="10" stroke-linecap="round" stroke-linejoin="round"/>
<path d="M371.933 581.464C340.187 581.464 314.439 555.717 314.439 523.97V480.975C314.439 472.976 320.939 466.477 328.938 466.477H415.178C423.177 466.477 429.677 472.976 429.677 480.975V523.97C429.427 555.717 403.68 581.464 371.933 581.464Z" fill="#FFC897"/>
<path d="M415.178 466.477H328.938C320.939 466.477 314.439 473.476 314.439 481.975V517.221C332.437 523.97 351.685 527.72 371.933 527.72C392.181 527.72 411.429 523.97 429.427 517.221V481.975C429.427 473.476 422.927 466.477 415.178 466.477Z" fill="#E5A973"/>
<path d="M371.933 581.464C340.187 581.464 314.439 555.717 314.439 523.97V480.975C314.439 472.976 320.939 466.477 328.938 466.477H415.178C423.177 466.477 429.677 472.976 429.677 480.975V523.97C429.427 555.717 403.68 581.464 371.933 581.464Z" stroke="black" stroke-width="4" stroke-miterlimit="10" stroke-linecap="round" stroke-linejoin="round"/>
<path d="M284.194 632.458V765.443" stroke="black" stroke-width="6" stroke-miterlimit="10" stroke-linecap="round" stroke-linejoin="round"/>
<path d="M452.928 632.458V726.198" stroke="black" stroke-width="6" stroke-miterlimit="10" stroke-linecap="round" stroke-linejoin="round"/>
<path d="M452.926 754.444C464.385 754.444 473.674 745.155 473.674 733.697C473.674 722.238 464.385 712.949 452.926 712.949C441.468 712.949 432.179 722.238 432.179 733.697C432.179 745.155 441.468 754.444 452.926 754.444Z" fill="black"/>
<path d="M452.926 739.697C457.62 739.697 461.425 735.892 461.425 731.198C461.425 726.504 457.62 722.698 452.926 722.698C448.232 722.698 444.427 726.504 444.427 731.198C444.427 735.892 448.232 739.697 452.926 739.697Z" fill="#7E7E7E"/>
<path d="M371.937 508.722C284.946 508.722 214.204 438.229 214.204 350.989V168.009H529.669V350.989C529.669 437.979 459.177 508.722 371.937 508.722Z" fill="#FFC897"/>
<path d="M371.937 486.974C284.946 486.974 214.204 416.482 214.204 329.241V350.989C214.204 437.979 284.696 508.721 371.937 508.721C458.927 508.721 529.669 438.229 529.669 350.989V329.241C529.669 416.232 459.177 486.974 371.937 486.974Z" fill="#E5A973"/>
<path d="M371.937 508.722C284.946 508.722 214.204 438.229 214.204 350.989V168.009H529.669V350.989C529.669 437.979 459.177 508.722 371.937 508.722Z" stroke="black" stroke-width="4" stroke-miterlimit="10" stroke-linecap="round" stroke-linejoin="round"/>
<path d="M530.92 186.258C530.42 177.759 529.92 169.009 529.67 160.51C424.682 165.51 319.193 164.76 214.455 155.511C213.705 165.26 213.205 175.009 212.455 184.758C217.205 189.007 222.204 193.507 226.953 197.756C230.953 199.756 236.202 202.506 240.952 205.006C261.95 216.004 291.196 230.003 319.193 235.502C329.442 237.502 340.191 238.502 351.19 238.252C398.434 237.752 438.18 219.004 454.928 211.255C457.428 210.005 459.428 209.005 460.678 208.755C461.678 208.255 462.677 208.005 464.177 208.005C467.177 208.005 470.676 208.755 474.926 209.505C480.425 210.755 486.925 212.005 494.174 211.505C502.423 211.005 509.922 208.505 517.171 203.756C521.421 197.756 526.17 192.007 530.92 186.258Z" fill="#E5A973"/>
<path d="M454.929 91.2681C454.929 91.2681 328.693 8.02732 224.205 101.017C204.707 118.265 196.958 143.012 196.958 165.76V286.246H214.456V198.756C214.456 192.257 218.956 187.257 224.455 187.257C233.454 187.257 282.199 213.255 323.444 220.504C385.687 231.253 442.431 202.506 454.679 198.256C475.677 190.757 492.675 216.754 519.172 187.507H520.172C525.672 187.507 530.171 192.757 530.171 199.006V286.496H547.669V166.51C547.169 137.013 513.173 63.0212 454.929 91.2681Z" fill="#231A17"/>
<g opacity="0.34">
<path opacity="0.34" d="M214.203 269.748H196.705V286.246H214.203V269.748Z" fill="#231A17"/>
<path opacity="0.34" d="M547.166 269.748H529.668V286.246H547.166V269.748Z" fill="#231A17"/>
</g>
<path d="M454.929 91.2681C454.929 91.2681 328.693 8.02732 224.205 101.017C204.707 118.265 196.958 143.012 196.958 165.76V286.246H214.456V198.756C214.456 192.257 218.956 187.257 224.455 187.257C233.454 187.257 282.199 213.255 323.444 220.504C385.687 231.253 442.431 202.506 454.679 198.256C475.677 190.757 492.675 216.754 519.172 187.507H520.172C525.672 187.507 530.171 192.757 530.171 199.006V286.496H547.669V166.51C547.169 137.013 513.173 63.0212 454.929 91.2681Z" stroke="black" stroke-width="4" stroke-miterlimit="10" stroke-linecap="round" stroke-linejoin="round"/>
<path d="M348.189 172.508C348.189 172.508 212.704 181.257 183.957 109.265" stroke="black" stroke-width="4" stroke-miterlimit="10" stroke-linecap="round" stroke-linejoin="round"/>
<path d="M367.438 155.261C367.438 155.261 236.952 147.012 202.956 75.0195" stroke="black" stroke-width="4" stroke-miterlimit="10" stroke-linecap="round" stroke-linejoin="round"/>
<path d="M529.669 266.749V348.739C547.167 348.739 561.165 330.491 561.165 307.744C561.165 284.996 547.167 266.749 529.669 266.749Z" fill="#FFC897"/>
<path d="M529.669 271.248V343.99C539.918 337.241 546.917 323.492 546.917 307.494C546.917 291.746 539.918 277.997 529.669 271.248Z" fill="#E5A973"/>
<path d="M529.669 266.749V348.739C547.167 348.739 561.165 330.491 561.165 307.744C561.165 284.996 547.167 266.749 529.669 266.749Z" stroke="black" stroke-width="4" stroke-miterlimit="10" stroke-linecap="round" stroke-linejoin="round"/>
<path d="M214.454 266.749V348.739C196.956 348.739 182.957 330.491 182.957 307.744C182.707 284.996 196.956 266.749 214.454 266.749Z" fill="#FFC897"/>
<path d="M214.455 272.749C205.456 279.998 199.207 292.996 199.207 307.745C199.207 322.493 205.206 335.492 214.455 342.741V272.749Z" fill="#E5A973"/>
<path d="M214.454 266.749V348.739C196.956 348.739 182.957 330.491 182.957 307.744C182.707 284.996 196.956 266.749 214.454 266.749Z" stroke="black" stroke-width="4" stroke-miterlimit="10" stroke-linecap="round" stroke-linejoin="round"/>
<path d="M365.437 333.492L354.938 367.738C354.938 371.487 367.187 368.488 379.686 371.487" stroke="black" stroke-width="4" stroke-miterlimit="10" stroke-linecap="round" stroke-linejoin="round"/>
<path d="M424.429 397.484C428.179 423.481 394.683 446.478 368.436 441.729" stroke="black" stroke-width="3" stroke-miterlimit="10" stroke-linecap="round" stroke-linejoin="round"/>
<path d="M315.192 304.495C320.991 304.495 325.691 299.458 325.691 293.246C325.691 287.033 320.991 281.997 315.192 281.997C309.394 281.997 304.693 287.033 304.693 293.246C304.693 299.458 309.394 304.495 315.192 304.495Z" stroke="black" stroke-width="2" stroke-miterlimit="10" stroke-linecap="round" stroke-linejoin="round"/>
<path d="M315.192 304.495C320.991 304.495 325.691 299.458 325.691 293.246C325.691 287.033 320.991 281.997 315.192 281.997C309.394 281.997 304.693 287.033 304.693 293.246C304.693 299.458 309.394 304.495 315.192 304.495Z" fill="black"/>
<path d="M278.946 269.498C284.196 263.249 296.444 259 310.943 259C322.441 259 332.44 261.749 338.69 265.999" stroke="black" stroke-width="3" stroke-miterlimit="10" stroke-linecap="round" stroke-linejoin="round"/>
<path d="M430.179 304.495C435.977 304.495 440.677 299.459 440.677 293.246C440.677 287.034 435.977 281.997 430.179 281.997C424.38 281.997 419.68 287.034 419.68 293.246C419.68 299.459 424.38 304.495 430.179 304.495Z" stroke="black" stroke-width="2" stroke-miterlimit="10" stroke-linecap="round" stroke-linejoin="round"/>
<path d="M430.179 304.495C435.977 304.495 440.677 299.459 440.677 293.246C440.677 287.034 435.977 281.997 430.179 281.997C424.38 281.997 419.68 287.034 419.68 293.246C419.68 299.459 424.38 304.495 430.179 304.495Z" fill="black"/>
<path d="M466.425 269.499C461.176 263.25 448.927 259 434.429 259C422.93 259 412.931 261.75 406.682 265.999" stroke="black" stroke-width="3" stroke-miterlimit="10" stroke-linecap="round" stroke-linejoin="round"/>
</g>
<defs>
<linearGradient id="paint0_linear_301_3" x1="383" y1="0" x2="383" y2="760" gradientUnits="userSpaceOnUse">
<stop stop-color="#39B3F5"/>
<stop offset="1" stop-color="#3FB2D8"/>
</linearGradient>
<clipPath id="clip0_301_3">
<rect width="766" height="760" fill="white"/>
</clipPath>
</defs>
</svg>
